<svg xmlns="http://www.w3.org/2000/svg" version="1.1" xmlns:xlink="http://www.w3.org/1999/xlink" xmlns:svgjs="http://svgjs.dev/svgjs" width="2000" height="601" viewBox="0 0 2000 601"><g transform="matrix(1,0,0,1,-1.2121212121212466,-0.845492942143153)"><svg viewBox="0 0 396 119" data-background-color="#ffffff" preserveAspectRatio="xMidYMid meet" height="601" width="2000" xmlns="http://www.w3.org/2000/svg" xmlns:xlink="http://www.w3.org/1999/xlink"><g id="tight-bounds" transform="matrix(1,0,0,1,0.2400000000000091,0.1674104161647847)"><svg viewBox="0 0 395.52 118.66517916767043" height="118.66517916767043" width="395.52"><g><svg viewBox="0 0 395.52 118.66517916767043" height="118.66517916767043" width="395.52"><g><svg viewBox="0 0 395.52 118.66517916767043" height="118.66517916767043" width="395.52"><g id="textblocktransform"><svg viewBox="0 0 395.52 118.66517916767043" height="118.66517916767043" width="395.52" id="textblock"><g><svg viewBox="0 0 395.52 118.66517916767043" height="118.66517916767043" width="395.52"><g transform="matrix(1,0,0,1,0,0)"><svg width="395.52" viewBox="0.5 -40.7 138.64601766731548 42.300000000000004" height="118.66517916767043" data-palette-color="#1c4b82"><g transform="matrix(1,0,0,1,0,0)"><g><svg width="8.137345111543645" viewBox="2.18 -9.03 10.52 10.49" height="8.107000000000001" data-palette-color="#1c4b82" id="scriptelement" x="130.00867255577182" y="-8.107000000000001"><path d="M7.44 0.46L7.44 0.46Q5.68 0.46 4.43-0.79 3.18-2.04 3.18-3.8L3.18-3.8Q3.18-5.54 4.43-6.78 5.68-8.03 7.44-8.03L7.44-8.03Q9.14-8.03 10.42-6.78 11.7-5.54 11.7-3.8L11.7-3.8Q11.7-2.63 11.11-1.66 10.51-0.69 9.55-0.12 8.59 0.46 7.44 0.46Z" opacity="1" transform="matrix(1,0,0,1,0,0)" fill="#1c4b82" class="undefined-123" data-fill-palette-color="primary" id="tk-123"></path></svg></g></g><g class="wordmark-text-0" data-fill-palette-color="primary" id="text-0"><path d="M16.65-39.7Q18.9-39.7 20.5-38.13 22.1-36.55 22.1-34.25L22.1-34.25Q22.1-32.05 20.53-30.45 18.95-28.85 16.65-28.85L16.65-28.85Q14.45-28.85 12.85-30.43 11.25-32 11.25-34.25L11.25-34.25Q11.25-36.5 12.83-38.1 14.4-39.7 16.65-39.7L16.65-39.7ZM16.65-36.25Q15.8-36.25 15.23-35.68 14.65-35.1 14.65-34.2L14.65-34.2Q14.65-33.35 15.23-32.8 15.8-32.25 16.65-32.25L16.65-32.25Q17.55-32.25 18.13-32.83 18.7-33.4 18.7-34.3L18.7-34.3Q18.7-35.15 18.1-35.7 17.5-36.25 16.65-36.25L16.65-36.25ZM16.05-27Q22.1-27 25.9-24.98 29.7-22.95 29.7-18.4L29.7-18.4 29.7-8.1Q29.7-7.25 30.1-6.7 30.5-6.15 31.3-6.15L31.3-6.15 33.1-6.15 33.1-0.4Q32.95-0.3 32.33-0.08 31.7 0.15 30.55 0.38 29.4 0.6 27.9 0.6L27.9 0.6Q25 0.6 23.13-0.28 21.25-1.15 20.55-2.7L20.55-2.7Q18.65-1.2 16.3-0.3 13.95 0.6 10.8 0.6L10.8 0.6Q1.5 0.6 1.5-6.8L1.5-6.8Q1.5-10.65 3.58-12.68 5.65-14.7 9.55-15.45 13.45-16.2 19.75-16.2L19.75-16.2 19.75-17.5Q19.75-19.05 18.68-19.85 17.6-20.65 15.9-20.65L15.9-20.65Q14.35-20.65 13.23-20.1 12.1-19.55 12.1-18.35L12.1-18.35 12.1-18.15 2.3-18.15Q2.25-18.4 2.25-18.85L2.25-18.85Q2.25-22.6 5.83-24.8 9.4-27 16.05-27L16.05-27ZM19.75-11.5Q15.5-11.5 13.48-10.58 11.45-9.65 11.45-8.1L11.45-8.1Q11.45-5.6 14.85-5.6L14.85-5.6Q16.8-5.6 18.28-6.65 19.75-7.7 19.75-9.25L19.75-9.25 19.75-11.5ZM48.35-26.4L53.95-26.4 53.95-19.65 48.35-19.65 48.35-9.6Q48.35-7.8 48.95-6.98 49.55-6.15 51.15-6.15L51.15-6.15 53.95-6.15 53.95-0.3Q52.75 0.1 50.85 0.35 48.95 0.6 47.55 0.6L47.55 0.6Q43.15 0.6 40.77-1 38.4-2.6 38.4-6.45L38.4-6.45 38.4-19.65 34.7-19.65 34.7-26.4 38.8-26.4 40.95-34.4 48.35-34.4 48.35-26.4ZM74.6-27.05Q75.75-27.05 76.65-26.78 77.55-26.5 77.55-26.45L77.55-26.45 77.55-18.1 74.35-18.1Q71.25-18.1 69.87-16.5 68.5-14.9 68.5-11.75L68.5-11.75 68.5 0 58.55 0 58.55-26.4 66.7-26.4 67.35-22.4Q68.25-24.7 70.2-25.88 72.15-27.05 74.6-27.05L74.6-27.05ZM91.04-29.5L81.09-29.5 81.09-36.25 91.04-36.25 91.04-29.5ZM91.04 0L81.09 0 81.09-26.4 91.04-26.4 91.04 0ZM111.04-27Q117.99-27 121.97-23.48 125.94-19.95 125.94-13.2L125.94-13.2Q125.94-6.45 121.97-2.93 117.99 0.6 111.04 0.6L111.04 0.6Q104.09 0.6 100.14-2.9 96.19-6.4 96.19-13.2L96.19-13.2Q96.19-20 100.14-23.5 104.09-27 111.04-27L111.04-27ZM111.04-20.25Q106.14-20.25 106.14-14.6L106.14-14.6 106.14-11.75Q106.14-6.15 111.04-6.15L111.04-6.15Q115.99-6.15 115.99-11.75L115.99-11.75 115.99-14.6Q115.99-20.25 111.04-20.25L111.04-20.25Z" fill="#1c4b82" data-fill-palette-color="primary"></path></g></svg></g></svg></g></svg></g></svg></g></svg></g><defs></defs></svg><rect width="395.52" height="118.66517916767043" fill="none" stroke="none" visibility="hidden"></rect></g></svg></g></svg>